<?xml version="1.0" encoding="UTF-8"?>
<svg id="Layer_1" data-name="Layer 1" xmlns="http://www.w3.org/2000/svg" xmlns:xlink="http://www.w3.org/1999/xlink" viewBox="0 0 300 300">
  <defs>
    <style>
      .cls-1 {
        fill: url(#linear-gradient);
      }

      .cls-1, .cls-2 {
        stroke-width: 0px;
      }
    </style>
    <linearGradient id="linear-gradient" x1="55.62" y1="142.54" x2="244.62" y2="142.54" gradientUnits="userSpaceOnUse">
      <stop offset=".04" stop-color="#e9ca00"/>
      <stop offset="1" stop-color="#feff3f"/>
    </linearGradient>
  </defs>
  <g>
    <path class="cls-1" d="M178.62,237.04c-67.82,0-123-55.18-123-123V48.04h66c67.82,0,123,55.18,123,123v66h-66Z"/>
    <path class="cls-2" d="M121.62,50.54c32.19,0,62.45,12.53,85.21,35.29s35.29,53.02,35.29,85.21v63.5h-63.5c-32.19,0-62.45-12.53-85.21-35.29s-35.29-53.02-35.29-85.21v-63.5h63.5M121.62,45.54H53.12v68.5c0,69.31,56.19,125.5,125.5,125.5h68.5v-68.5c0-69.31-56.19-125.5-125.5-125.5h0Z"/>
  </g>
  <g>
    <path class="cls-2" d="M119.89,118.34l1.87.74-5.11,12.94,6.2,2.45-.62,1.57-8.07-3.19,5.73-14.51Z"/>
    <path class="cls-2" d="M134.53,133.03l-5.64-2.23-2.07,5.23,6.29,2.48-.62,1.57-8.16-3.22,5.73-14.51,7.84,3.09-.62,1.57-5.96-2.35-1.81,4.59,5.64,2.23-.61,1.55Z"/>
    <path class="cls-2" d="M149.67,139.5c.69-2.07,1.52-4.55,2.26-6.35l-.06-.03c-1.17,1.5-2.48,3.08-4.01,4.79l-5.34,6.03-1.42-.56.38-7.84c.12-2.32.28-4.42.55-6.3l-.04-.02c-.76,1.79-1.83,4.18-2.81,6.31l-2.84,6.07-1.79-.71,6.74-14.11,2.39.94-.29,8c-.1,2.03-.24,3.81-.47,5.47l.06.03c.94-1.32,2.09-2.71,3.46-4.28l5.36-6,2.39.94-4.83,14.87-1.83-.72,2.15-6.52Z"/>
    <path class="cls-2" d="M167.56,145.37c-1.97,4.99-6.05,6.44-9.76,4.98-3.83-1.51-5.35-5.55-3.62-9.94,1.82-4.61,5.87-6.49,9.75-4.96,3.96,1.56,5.33,5.61,3.62,9.92ZM156.21,141.16c-1.22,3.1-.64,6.54,2.31,7.71,2.97,1.17,5.73-.9,7.03-4.19,1.14-2.88.82-6.49-2.3-7.73-3.1-1.22-5.78,1.03-7.04,4.21Z"/>
    <path class="cls-2" d="M167.07,153.74l5.73-14.51,2.04.81,1.75,9.18c.41,2.13.64,3.99.74,5.74h.05c.59-2.01,1.25-3.79,2.14-6.05l2.4-6.07,1.77.7-5.73,14.51-1.89-.75-1.7-9.18c-.37-2.01-.69-4.05-.8-5.92h-.07c-.61,1.87-1.26,3.63-2.21,6.04l-2.45,6.2-1.77-.7Z"/>
  </g>
</svg>