<?xml version="1.0" encoding="UTF-8"?>
<svg id="Layer_1" data-name="Layer 1" xmlns="http://www.w3.org/2000/svg" viewBox="0 0 300 300">
  <defs>
    <style>
      .cls-1 {
        stroke-width: 0px;
      }
    </style>
  </defs>
  <path class="cls-1" d="M219.22,229.15c-6.89-9.13-13.78-18.26-20.67-27.4-.75-.99-1.66-1.58-2.63-1.87,13.86-17.29,19.25-41.14,14.55-63.22-1.33-6.23-3.39-12.25-6.09-17.96,5.76-5.54,11.51-11.08,17.27-16.62,4.65-4.48-2.69-11.27-7.31-6.82-4.98,4.79-9.96,9.59-14.94,14.38-12.8-20.33-33.95-35.43-57.68-40.12-1.49-.3-2.99-.53-4.5-.73,2.74-5.91,9.82-9.18,16.12-7.84,6.29,1.34,8.5-8.41,2.2-9.76-9.31-1.99-18.44,1.66-24.13,8.6.86-5.14,1.72-10.28,2.58-15.41,1.06-6.32-8.69-8.56-9.76-2.2-.78,4.67-1.56,9.33-2.34,14-2.51-2.79-5.96-4.8-10.21-5.49-6.32-1.02-8.57,8.73-2.2,9.76,4.23.68,7.57,4.14,7.25,8.28-23.75,3.06-45.91,16.83-56.62,39.09-2.2,4.56-3.85,9.19-5.03,13.85-2.17-2-4.33-3.99-6.5-5.99-4.74-4.37-11.56,2.95-6.82,7.31,3.78,3.49,7.56,6.97,11.34,10.46-2.55,30.02,13.25,60.03,35.41,80.75,2.94,2.75,6.7.93,7.97-1.9,2.54,1.48,5.15,2.85,7.82,4.09-4.34,6.56-8.68,13.12-13.03,19.67-3.56,5.37,5.3,10.03,8.82,4.71,4.54-6.86,9.09-13.73,13.63-20.59,19.36,6.6,40.81,6.79,59.6-2.25,6.17-2.97,11.65-6.83,16.42-11.36.1.17.21.34.34.51,6.89,9.13,13.78,18.26,20.67,27.4,3.85,5.11,12.33-.2,8.45-5.34ZM177.13,204.15c-17.26,12.29-39.52,13.41-59.3,7-.93-2.58-4.55-4.12-7.35-2.77-5.9-2.56-11.47-5.79-16.49-9.6-2.21-1.68-4.74-1.25-6.5.08-14.63-16.46-24.84-37.15-24.64-59.03,3.47-.75,6.04-5.42,2.64-8.55-.59-.55-1.19-1.09-1.78-1.64.27-1.7.61-3.4,1.02-5.1,6.17-25.8,29.04-43.46,54.66-46.2,1.05.23,2.21.14,3.22-.26,1.64-.09,3.3-.13,4.96-.1,30.36.56,58.59,21.38,69.64,49.38,10.51,26.64,4.04,59.62-20.08,76.8Z"/>
  <path class="cls-1" d="M97.64,109.55c-6.28-1.41-8.49,8.34-2.2,9.76s8.49-8.34,2.2-9.76Z"/>
  <path class="cls-1" d="M128.39,105.48c-6.28-1.41-8.49,8.34-2.2,9.76s8.49-8.34,2.2-9.76Z"/>
  <path class="cls-1" d="M158.65,129.64c-9.27,12.77-19.37,27.08-34.93,32.48-12.59,4.38-30.91.3-32.81-15.31-.77-6.34-10.77-5.94-9.99.47,2.27,18.63,20.98,29.19,38.62,26.18,21.02-3.58,34.64-20.77,46.43-37.01,3.74-5.15-3.54-12.02-7.31-6.82Z"/>
  <path class="cls-1" d="M119.09,133.67c-.12-.18-.27-.33-.41-.49.11-.45.16-.91.12-1.34-.12-1.27-.59-2.57-1.58-3.42-.35-.25-.7-.5-1.05-.75-.81-.43-1.68-.62-2.59-.58-2.02-.17-4.27,1.04-5.54,2.55-1.61,1.92-2.32,4.51-1.55,6.95,1.42,4.52,7.09,6.53,11.06,3.98,2.2-1.41,3.1-4.67,1.55-6.9Z"/>
</svg>