<?xml version="1.0" encoding="UTF-8"?>
<svg id="Layer_1" data-name="Layer 1" xmlns="http://www.w3.org/2000/svg" viewBox="0 0 300 300">
  <defs>
    <style>
      .cls-1, .cls-2, .cls-3, .cls-4, .cls-5, .cls-6, .cls-7 {
        stroke-width: 0px;
      }

      .cls-2 {
        fill: #f0f;
      }

      .cls-3 {
        fill: #ff0;
      }

      .cls-4 {
        fill: red;
      }

      .cls-5 {
        fill: lime;
      }

      .cls-6 {
        fill: blue;
      }

      .cls-7 {
        fill: aqua;
      }
    </style>
  </defs>
  <g>
    <polygon class="cls-3" points="64.45 152.9 43.41 116.45 64.45 80 106.54 80 127.58 116.45 106.54 152.9 64.45 152.9"/>
    <path class="cls-1" d="M105.1,82.5l19.6,33.95-19.6,33.95h-39.2l-19.6-33.95,19.6-33.95h39.2M107.98,77.5h-44.97l-22.49,38.95,22.49,38.95h44.97l22.49-38.95-22.49-38.95h0Z"/>
  </g>
  <g>
    <polygon class="cls-4" points="131.48 114.15 110.44 77.7 131.48 41.25 173.57 41.25 194.61 77.7 173.57 114.15 131.48 114.15"/>
    <path class="cls-1" d="M172.13,43.75l19.6,33.95-19.6,33.95h-39.2l-19.6-33.95,19.6-33.95h39.2M175.01,38.75h-44.97l-22.49,38.95,22.49,38.95h44.97l22.49-38.95-22.49-38.95h0Z"/>
  </g>
  <g>
    <polygon class="cls-5" points="64.45 230.19 43.41 193.74 64.45 157.29 106.54 157.29 127.58 193.74 106.54 230.19 64.45 230.19"/>
    <path class="cls-1" d="M105.1,159.79l19.6,33.95-19.6,33.95h-39.2l-19.6-33.95,19.6-33.95h39.2M107.98,154.79h-44.97l-22.49,38.95,22.49,38.95h44.97l22.49-38.95-22.49-38.95h0Z"/>
  </g>
  <g>
    <polygon class="cls-6" points="198.48 230.44 177.44 193.99 198.48 157.55 240.57 157.55 261.61 193.99 240.57 230.44 198.48 230.44"/>
    <path class="cls-1" d="M239.13,160.05l19.6,33.95-19.6,33.95h-39.2l-19.6-33.95,19.6-33.95h39.2M242.01,155.05h-44.97l-22.49,38.95,22.49,38.95h44.97l22.49-38.95-22.49-38.95h0Z"/>
  </g>
  <g>
    <polygon class="cls-1" points="131.48 191.44 110.44 154.99 131.48 118.55 173.57 118.55 194.61 154.99 173.57 191.44 131.48 191.44"/>
    <path class="cls-1" d="M172.13,121.05l19.6,33.95-19.6,33.95h-39.2l-19.6-33.95,19.6-33.95h39.2M175.01,116.05h-44.97l-22.49,38.95,22.49,38.95h44.97l22.49-38.95-22.49-38.95h0Z"/>
  </g>
  <g>
    <polygon class="cls-7" points="131.45 269.19 110.41 232.74 131.45 196.29 173.54 196.29 194.58 232.74 173.54 269.19 131.45 269.19"/>
    <path class="cls-1" d="M172.1,198.79l19.6,33.95-19.6,33.95h-39.2l-19.6-33.95,19.6-33.95h39.2M174.98,193.79h-44.97l-22.49,38.95,22.49,38.95h44.97l22.49-38.95-22.49-38.95h0Z"/>
  </g>
  <g>
    <polygon class="cls-2" points="198.48 153.15 177.44 116.7 198.48 80.25 240.57 80.25 261.61 116.7 240.57 153.15 198.48 153.15"/>
    <path class="cls-1" d="M239.13,82.75l19.6,33.95-19.6,33.95h-39.2l-19.6-33.95,19.6-33.95h39.2M242.01,77.75h-44.97l-22.49,38.95,22.49,38.95h44.97l22.49-38.95-22.49-38.95h0Z"/>
  </g>
</svg>