<?xml version="1.0" encoding="UTF-8"?>
<svg id="Layer_1" data-name="Layer 1" xmlns="http://www.w3.org/2000/svg" viewBox="0 0 300 300">
  <defs>
    <style>
      .cls-1, .cls-2 {
        stroke: #000;
        stroke-miterlimit: 10;
      }

      .cls-3, .cls-4 {
        stroke-width: 0px;
      }

      .cls-4 {
        fill: #f15a24;
      }

      .cls-2 {
        fill: #fff;
      }
    </style>
  </defs>
  <circle class="cls-2" cx="150" cy="236.5" r="47.5"/>
  <circle class="cls-2" cx="149.5" cy="167.5" r="39.5"/>
  <circle class="cls-2" cx="149.5" cy="113.5" r="31.5"/>
  <path class="cls-3" d="M215.53,130.49c-9.75,6.65-19.49,13.31-29.24,19.96-1.58,1.08-.09,3.68,1.51,2.59,9.75-6.65,19.49-13.31,29.24-19.96,1.58-1.08.09-3.68-1.51-2.59Z"/>
  <path class="cls-3" d="M114.09,148.14c-12.52-9.35-25.05-18.69-37.57-28.04-1.55-1.16-3.05,1.45-1.51,2.59,12.52,9.35,25.05,18.69,37.57,28.04,1.55,1.16,3.05-1.45,1.51-2.59Z"/>
  <rect class="cls-1" x="125" y="38" width="50" height="60.41"/>
  <rect class="cls-1" x="144.35" y="58.45" width="11.29" height="75.81" transform="translate(246.35 -53.65) rotate(90)"/>
  <path class="cls-3" d="M137.61,108.77c-1.93,0-1.93,3,0,3s1.93-3,0-3Z"/>
  <path class="cls-3" d="M163.65,109.28c-1.93,0-1.93,3,0,3s1.93-3,0-3Z"/>
  <path class="cls-3" d="M149.86,153.7c-1.93,0-1.93,3,0,3s1.93-3,0-3Z"/>
  <path class="cls-3" d="M148.84,172.09c-1.93,0-1.93,3,0,3s1.93-3,0-3Z"/>
  <path class="cls-3" d="M150.37,189.45c-1.93,0-1.93,3,0,3s1.93-3,0-3Z"/>
  <path class="cls-3" d="M126.37,122.04c-1.93,0-1.93,3,0,3s1.93-3,0-3Z"/>
  <path class="cls-3" d="M132.5,129.7c-1.93,0-1.93,3,0,3s1.93-3,0-3Z"/>
  <path class="cls-3" d="M142.71,135.83c-1.93,0-1.93,3,0,3s1.93-3,0-3Z"/>
  <path class="cls-3" d="M152.41,135.83c-1.93,0-1.93,3,0,3s1.93-3,0-3Z"/>
  <path class="cls-3" d="M166.71,132.26c-1.93,0-1.93,3,0,3s1.93-3,0-3Z"/>
  <path class="cls-3" d="M174.37,122.55c-1.93,0-1.93,3,0,3s1.93-3,0-3Z"/>
  <polygon class="cls-4" points="164.24 120.39 148.5 125.6 148.5 115.18 164.24 120.39"/>
</svg>