<?xml version="1.0" encoding="UTF-8"?>
<svg id="Layer_1" data-name="Layer 1" xmlns="http://www.w3.org/2000/svg" viewBox="0 0 300 300">
  <defs>
    <style>
      .cls-1 {
        fill: #f7931e;
      }

      .cls-1, .cls-2, .cls-3 {
        stroke: #000;
        stroke-miterlimit: 10;
        stroke-width: 5px;
      }

      .cls-4 {
        stroke-width: 0px;
      }

      .cls-2 {
        fill: #f15a24;
      }

      .cls-3 {
        fill: #fbb03b;
      }
    </style>
  </defs>
  <path class="cls-2" d="M190.97,216.4c-1.59,0-3.19-.38-4.65-1.15l-36.32-19.1-36.32,19.1c-1.46.77-3.06,1.15-4.65,1.15-2.07,0-4.14-.64-5.88-1.91-3.08-2.24-4.62-6.03-3.98-9.78l6.94-40.45-29.39-28.64c-2.73-2.66-3.71-6.63-2.53-10.25s4.31-6.26,8.07-6.81l40.61-5.9,18.16-36.8c1.68-3.41,5.16-5.57,8.97-5.57s7.28,2.16,8.97,5.57l18.16,36.8,40.61,5.9c3.77.55,6.9,3.19,8.07,6.81,1.18,3.62.2,7.59-2.53,10.25l-29.38,28.64,6.94,40.45c.64,3.75-.9,7.54-3.98,9.78-1.74,1.27-3.81,1.91-5.88,1.91Z"/>
  <polygon class="cls-1" points="150 80.29 170.49 121.8 216.3 128.46 183.15 160.77 190.98 206.4 150 184.86 109.02 206.4 116.85 160.77 83.7 128.46 129.51 121.8 150 80.29"/>
  <path class="cls-3" d="M154.65,176c-1.46-.77-3.05-1.15-4.65-1.15s-3.2.38-4.65,1.15l-23.04,12.11,4.4-25.66c.56-3.24-.52-6.55-2.88-8.85l-18.64-18.17,25.76-3.74c3.26-.47,6.07-2.52,7.53-5.47l11.52-23.34,11.52,23.34c1.46,2.95,4.27,5,7.53,5.47l25.76,3.74-18.64,18.17c-2.36,2.3-3.43,5.61-2.88,8.85l4.4,25.66-23.04-12.11Z"/>
  <path class="cls-4" d="M139.82,141c1.93,0,1.93-3,0-3s-1.93,3,0,3h0Z"/>
  <path class="cls-4" d="M151.73,133.85c1.93,0,1.93-3,0-3s-1.93,3,0,3h0Z"/>
  <path class="cls-4" d="M134.65,150.14c.91.18,1.74,1.3,2.57,1.74,1.09.58,2.34.86,3.56,1.03,2.59.35,5.23-.03,7.69-.85,2.2-.73,4.35-1.73,6.2-3.12.97-.73,1.86-1.54,2.56-2.55.57-.82.91-2.15,1.69-2.76,1.51-1.2-.63-3.31-2.12-2.12-.74.59-1.06,1.5-1.51,2.31-.53.96-1.15,1.73-2.01,2.43-1.63,1.33-3.62,2.27-5.6,2.92-2.14.71-4.44,1.11-6.7.76-1.12-.17-2.15-.5-3.06-1.17-.77-.57-1.5-1.32-2.47-1.51-1.89-.37-2.69,2.52-.8,2.89h0Z"/>
</svg>